<svg viewBox="0 0 800 800" xmlns="http://www.w3.org/2000/svg"><path d="M696.4294693615568,229.38967441102318 L706.8531326401624,235.6116895789816 M706.8531326401624,235.6116895789816 L716.4634679133211,242.25159556626764 M716.4634679133211,242.25159556626764 L725.2073689385372,249.27461736520792 M725.2073689385372,249.27461736520792 L733.0362263604958,256.6437491080896 M733.0362263604958,256.6437491080896 L739.9059881274311,264.3200492726186 M739.9059881274311,264.3200492726186 L745.7774790792432,272.2627989913617 M745.7774790792432,272.2627989913617 L750.6168101405115,280.4296032041665 M750.6168101405115,280.4296032041665 L754.3953238311791,288.77675666770676 M754.3953238311791,288.77675666770676 L757.0900362071748,297.259328402199 M757.0900362071748,297.259328402199 L758.6837088861697,305.83146112937027 M758.6837088861697,305.83146112937027 L759.1649964514073,314.4465761303082 M759.1649964514073,314.4465761303082 L758.5286068628371,323.057624533132 M758.5286068628371,323.057624533132 L756.7753245423511,331.6174082512557 M756.7753245423511,331.6174082512557 L753.9121055177628,340.0787365670749 M753.9121055177628,340.0787365670749 L749.9521301650749,348.39474207142644 M749.9521301650749,348.39474207142644 L744.9146941578705,356.5191853760823 M744.9146941578705,356.5191853760823 L738.8252947995948,364.4066301666291 M738.8252947995948,364.4066301666291 L731.7153711923859,372.01282294554113 M731.7153711923859,372.01282294554113 L723.6223217427126,379.2948832157122 M723.6223217427126,379.2948832157122 L714.5891681669533,386.21158850344517 M714.5891681669533,386.21158850344517 L704.6645816610115,392.72365861026304 M704.6645816610115,392.72365861026304 L693.9024028500144,398.79392409045863 M693.9024028500144,398.79392409045863 L682.3614893981448,404.38766963144457 M682.3614893981448,404.38766963144457 L670.1053708452482,409.47278678996287 M670.1053708452482,409.47278678996287 L657.2018781468576,414.01999016077764 M657.2018781468576,414.01999016077764 L643.7227303314048,418.0030506983869 M643.7227303314048,418.0030506983869 L629.7431778837588,421.39890322931967 M629.7431778837588,421.39890322931967 L615.3415125088878,424.18787898987904 M615.3415125088878,424.18787898987904 L600.5986424788186,426.3537784154408 M600.5986424788186,426.3537784154408 L585.5974948031545,427.88400784024464 M585.5974948031545,427.88400784024464 L570.4226483021297,428.7696741236261 M570.4226483021297,428.7696741236261 L555.1597291450169,429.0056044761386 M555.1597291450169,429.0056044761386 L539.8949001055881,428.59043341067024 M539.8949001055881,428.59043341067024 L524.7143536485166,427.5265775924319 M524.7143536485166,427.5265775924319 L509.70371012079886,425.8202224613465 M509.70371012079886,425.8202224613465 L494.94757710249075,423.4813115305431 M494.94757710249075,423.4813115305431 L480.52896740332335,420.52342850656964 M480.52896740332335,420.52342850656964 L466.52882709248786,416.96374242227995 M466.52882709248786,416.96374242227995 L453.0255373666362,412.8228741067176 M453.0255373666362,412.8228741067176 L440.0944189798621,408.1247729563729 M440.0944189798621,408.1247729563729 L427.8073308588632,402.89652924330943 M427.8073308588632,402.89652924330943 L416.2322179464068,397.1682212583287 M696.4294693615568,229.38967441102318 L696.5098184053244,224.61155158004567 M696.5098184053244,224.61155158004567 L706.9358014358803,230.8321297262371 M706.9358014358803,230.8321297262371 L716.5482850022875,237.47050392469018 M716.5482850022875,237.47050392469018 L725.2941508997848,244.49190751614256 M725.2941508997848,244.49190751614256 L733.1247786781485,251.8593434734973 M733.1247786781485,251.8593434734973 L739.9961060781138,259.5338795307725 M739.9961060781138,259.5338795307725 L745.8689486971713,267.47480644812674 M745.8689486971713,267.47480644812674 L750.7094092814812,275.63973913355755 M750.7094092814812,275.63973913355755 L754.4888232382015,283.98498256179033 M754.4888232382015,283.98498256179033 L757.1842006856559,292.46561619591864 M757.1842006856559,292.46561619591864 L758.7782985110138,301.0357933521273 M758.7782985110138,301.0357933521273 L759.2597678228794,309.6489460072043 M759.2597678228794,309.6489460072043 L758.6233144153341,318.25803602658397 M758.6233144153341,318.25803602658397 L756.8697218770794,326.8158760285899 M756.8697218770794,326.8158760285899 L754.0059467738652,335.2752859329203 M754.0059467738652,335.2752859329203 L750.0451714211379,343.58940883009654 M750.0451714211379,343.58940883009654 L745.0066948275194,351.7120156280232 M745.0066948275194,351.7120156280232 L738.9160190621628,359.5976800696354 M738.9160190621628,359.5976800696354 L731.8045893828539,367.20215839574826 M731.8045893828539,367.20215839574826 L723.7098117588171,374.48257949240167 M723.7098117588171,374.48257949240167 L714.6747168143565,381.3977298572521 M714.6747168143565,381.3977298572521 L704.7479860143384,387.9083377958749 M704.7479860143384,387.9083377958749 L693.9834715145989,393.9772418704724 M693.9834715145989,393.9772418704724 L682.440043743725,399.5697342125718 M682.440043743725,399.5697342125718 L670.1812461648649,404.65371323462267 M670.1812461648649,404.65371323462267 L657.2749247331844,409.1998997598115 M657.2749247331844,409.1998997598115 L643.7928144584407,413.1820703008531 M643.7928144584407,413.1820703008531 L629.8101827030467,416.5771645570326 M629.8101827030467,416.5771645570326 L615.4053388290816,419.36551790806715 M615.4053388290816,419.36551790806715 L600.6592094399086,421.5309341943248 M600.6592094399086,421.5309341943248 L585.6547404054437,423.06082239218506 M585.6547404054437,423.06082239218506 L570.4765298393436,423.94629122400977 M570.4765298393436,423.94629122400977 L555.2102234872268,424.18216898332867 M555.2102234872268,424.18216898332867 L539.9420038522697,423.76709046861254 M539.9420038522697,423.76709046861254 L524.7580831516215,422.7034718394164 M524.7580831516215,422.7034718394164 L509.7441013568839,420.99749724078913 M509.7441013568839,420.99749724078913 L494.98468543011643,418.6591081017054 M494.98468543011643,418.6591081017054 L480.5628671747986,415.70188527769625 M480.5628671747986,415.70188527769625 L466.55961114589513,412.14299419078134 M466.55961114589513,412.14299419078134 L453.0533163936641,408.0030513227593 M453.0533163936641,408.0030513227593 L440.11932077199776,403.30600100654544 M440.11932077199776,403.30600100654544 L427.8294994548626,398.0789277679527 M427.8294994548626,398.0789277679527 L416.25181267229846,392.35190349409703 M416.25181267229846,392.35190349409703 L416.2322179464068,397.1682212583287 M405.78530555728605,391.1898935983818 L395.7912840974715,384.57661184082775 M395.7912840974715,384.57661184082775 L386.68421375480557,377.5679832064775 M386.68421375480557,377.5679832064775 L378.5130781583164,370.20379194318394 M378.5130781583164,370.20379194318394 L371.3213514077035,362.5256844280676 M371.3213514077035,362.5256844280676 L365.14683451111927,354.5768914859716 M365.14683451111927,354.5768914859716 L360.02143646874123,346.4019896398598 M360.02143646874123,346.4019896398598 L355.97106876610525,338.04661810837086 M355.97106876610525,338.04661810837086 L353.01552172619307,329.55720449027706 M353.01552172619307,329.55720449027706 L351.16847331653594,320.9807142158971 M351.16847331653594,320.9807142158971 L350.4373840302719,312.3643475630613 M350.4373840302719,312.3643475630613 L350.8235685314157,303.75532417683775 M350.8235685314157,303.75532417683775 L352.3222525132529,295.20058414356345 M352.3222525132529,295.20058414356345 L354.9225979638938,286.7465496817654 M354.9225979638938,286.7465496817654 L358.6079073638779,278.4388886856724 M358.6079073638779,278.4388886856724 L363.3556983341207,270.32223089193326 M363.3556983341207,270.32223089193326 L369.13789158754764,262.4400193360274 M369.13789158754764,262.4400193360274 L375.9210547913006,254.83423307758835 M375.9210547913006,254.83423307758835 L383.66652157220204,247.5452083398791 M383.66652157220204,247.5452083398791 L392.33076816144194,240.61141908856408 M392.33076816144194,240.61141908856408 L401.865561557809,234.06933185593817 M401.865561557809,234.06933185593817 L412.218308881909,227.9532228885468 M412.218308881909,227.9532228885468 L423.33236484056744,222.29501460122933 M423.33236484056744,222.29501460122933 L435.14721923663916,217.1241215508753 M435.14721923663916,217.1241215508753 L447.5990028247302,212.46739322148014 M447.5990028247302,212.46739322148014 L460.6206840731643,208.34887030313786 M460.6206840731643,208.34887030313786 L474.14246180391217,204.78981258961855 M474.14246180391217,204.78981258961855 L488.09215401181416,201.80851678089468 M488.09215401181416,201.80851678089468 L502.39542474843745,199.4203246990454 M502.39542474843745,199.4203246990454 L516.9763364505604,197.63746449995963 M516.9763364505604,197.63746449995963 L531.7575558826749,196.46908086050775 M531.7575558826749,196.46908086050775 L546.660787127553,195.92114565386143 M546.660787127553,195.92114565386143 L561.6072334757354,195.99645113816123 M561.6072334757354,195.99645113816123 L576.5177929814951,196.6946238220736 M576.5177929814951,196.6946238220736 L591.3135483732165,198.01208860285996 M591.3135483732165,198.01208860285996 L605.9161504035333,199.94210625589352 M605.9161504035333,199.94210625589352 L620.2481333713171,202.4748009106218 M620.2481333713171,202.4748009106218 L634.2334084532245,205.5971403029153 M634.2334084532245,205.5971403029153 L647.7974017771731,209.29312665817866 M647.7974017771731,209.29312665817866 L660.8676918994371,213.54370244383003 M660.8676918994371,213.54370244383003 L673.3742063652453,218.32692283023846 M673.3742063652453,218.32692283023846 L685.2495309400359,223.61807885020897 M685.2495309400359,223.61807885020897 L696.4294693615568,229.38967441102318 M416.2322179464068,397.1682212583287 L447.1527852944248,379.30630008691486 M447.1527852944248,379.30630008691486 L436.7060533418461,373.3477038690489 M436.7060533418461,373.3477038690489 L405.78530555728605,391.1898935983818 M450.18080403555393,371.56140762457716 L460.01449621055497,376.69301703451504 M460.01449621055497,376.69301703451504 L470.6035049277251,381.3131676365928 M470.6035049277251,381.3131676365928 L481.86431265456645,385.38433267925245 M481.86431265456645,385.38433267925245 L493.70772299755754,388.8733689400921 M493.70772299755754,388.8733689400921 L506.0395834529353,391.7518202282768 M506.0395834529353,391.7518202282768 L518.7616182553214,393.99616151237626 M518.7616182553214,393.99616151237626 L531.7721916249519,395.58802539468803 M531.7721916249519,395.58802539468803 L544.9672089807831,396.514384545772 M544.9672089807831,396.514384545772 L558.2409974178561,396.7676273681661 M558.2409974178561,396.7676273681661 L571.4871736098103,396.345694913349 M571.4871736098103,396.345694913349 L584.5996459317025,395.25203903159417 M584.5996459317025,395.25203903159417 L597.4733907709657,393.4956229270743 M597.4733907709657,393.4956229270743 L610.0054809428207,391.0908228872921 M610.0054809428207,391.0908228872921 L622.095861215853,388.05732524828414 M622.095861215853,388.05732524828414 L633.6482537234984,384.41989637327674 M633.6482537234984,384.41989637327674 L644.5709414773069,380.2082091517089 M644.5709414773069,380.2082091517089 L654.7775407869732,375.45650419909936 M654.7775407869732,375.45650419909936 L664.1876659692982,370.2033741812494 M664.1876659692982,370.2033741812494 L672.7276255690483,364.4913226819875 M672.7276255690483,364.4913226819875 L680.3309620934324,358.3664587583541 M680.3309620934324,358.3664587583541 L686.9389768848231,351.87803365451435 M686.9389768848231,351.87803365451435 L692.5011537163938,345.07807567578317 M692.5011537163938,345.07807567578317 L696.9755689237714,338.0208711575609 M696.9755689237714,338.0208711575609 L700.3289921794717,330.7626053780694 M700.3289921794717,330.7626053780694 L702.5374004126692,323.3607535535221 M702.5374004126692,323.3607535535221 L703.5857187403886,315.8737782779658 M703.5857187403886,315.8737782779658 L703.4681904958929,308.36052077906083 M703.4681904958929,308.36052077906083 L702.1881775700145,300.8797803835913 M702.1881775700145,300.8797803835913 L699.7580929671346,293.48987250464256 M699.7580929671346,293.48987250464256 L696.1992162859864,286.2481653710763 M696.1992162859864,286.2481653710763 L691.541487476642,279.2106467813579 M691.541487476642,279.2106467813579 L685.8232235271436,272.4314877409006 M685.8232235271436,272.4314877409006 L679.0907064299143,265.9626768172423 M679.0907064299143,265.9626768172423 L671.3977758098806,259.8536568788517 M671.3977758098806,259.8536568788517 L662.8054331895021,254.15093109618857 M662.8054331895021,254.15093109618857 L653.38127979717,248.8977813572181 M653.38127979717,248.8977813572181 L643.1990150256148,244.13394382628888 M643.1990150256148,244.13394382628888 L632.3378679184343,239.8953434686794 M632.3378679184343,239.8953434686794 L620.881944567429,236.21387623259102 M620.881944567429,236.21387623259102 L608.9196704997996,233.1171630319027 M608.9196704997996,233.1171630319027 L596.5430607703919,230.62840472701987 M596.5430607703919,230.62840472701987 L583.8470673157472,228.76623249625828 M583.8470673157472,228.76623249625828 L570.9289456072694,227.5445560929041 M570.9289456072694,227.5445560929041 L557.8875230099729,226.97248414476763 M557.8875230099729,226.97248414476763 L544.8224961736463,227.05428357650538 M544.8224961736463,227.05428357650538 L531.8336973096945,227.78934560230292 M531.8336973096945,227.78934560230292 L519.0204174193921,229.1722089043509 M519.0204174193921,229.1722089043509 L506.48078099888755,231.192498498006 M506.48078099888755,231.192498498006 L494.3108131005645,233.8351764464273 M494.3108131005645,233.8351764464273 L482.6040395258723,237.08042163264412 M482.6040395258723,237.08042163264412 L471.45056868796553,240.9039357336495 M471.45056868796553,240.9039357336495 L460.93660284307873,245.2769995178619 M460.93660284307873,245.2769995178619 L451.14367221910413,250.16669229827363 M451.14367221910413,250.16669229827363 L442.1481274290236,255.53610338808716 M442.1481274290236,255.53610338808716 L434.0204518180064,261.34459032090297 M434.0204518180064,261.34459032090297 L426.8248310579403,267.54803218570817 M426.8248310579403,267.54803218570817 L420.6184717205987,274.0991642629086 M420.6184717205987,274.0991642629086 L415.4512873117699,280.94788446043145 M415.4512873117699,280.94788446043145 L411.3653500861247,288.0416176730619 M411.3653500861247,288.0416176730619 L408.39460368895385,295.3256816557582 M408.39460368895385,295.3256816557582 L406.5644545645234,302.74372282150614 M406.5644545645234,302.74372282150614 L405.8915574812655,310.2380798841113 M405.8915574812655,310.2380798841113 L406.38358742566,317.7502957024068 M406.38358742566,317.7502957024068 L408.0391599164952,325.22149329482784 M408.0391599164952,325.22149329482784 L410.8476606403598,332.5928899625771 M410.8476606403598,332.5928899625771 L414.78936819202545,339.8062453271236 M414.78936819202545,339.8062453271236 L419.8354599200019,346.8043304466439 M419.8354599200019,346.8043304466439 L425.9481955207794,353.531422100574 M425.9481955207794,353.531422100574 L433.0811740470979,359.9337331774268 M433.0811740470979,359.9337331774268 L441.17962418821537,365.95989773230866 M441.17962418821537,365.95989773230866 L450.18080403555393,371.56140762457716 M447.1527852944248,379.30630008691486 L447.1791805383964,374.49399379539943 M416.25181267229846,392.35190349409703 L447.1791805383964,374.49399379539943 M405.80257832148175,386.3749170070505 L395.8063367081872,379.76312057187226 M395.8063367081872,379.76312057187226 L386.69724441748406,372.7560680076766 M386.69724441748406,372.7560680076766 L378.52429577443587,365.3935349383558 M378.52429577443587,365.3935349383558 L371.33097426303357,357.71715866568275 M371.33097426303357,357.71715866568275 L365.1550889354702,349.770160542014 M365.1550889354702,349.770160542014 L360.0285554571757,341.5971072670668 M360.0285554571757,341.5971072670668 L355.97729058848995,333.24362794290175 M355.97729058848995,333.24362794290175 L353.02108852269384,324.75613981508144 M353.02108852269384,324.75613981508144 L351.17362970948864,316.18159777671167 M351.17362970948864,316.18159777671167 L350.44237572823266,307.56719145033816 M350.44237572823266,307.56719145033816 L350.82864096486935,298.96012975517476 M350.82864096486935,298.96012975517476 L352.32764949882113,290.407342049058 M352.32764949882113,290.407342049058 L354.92856038995797,281.95523987495983 M354.92856038995797,281.95523987495983 L358.6146719363107,273.649480561042 M358.6146719363107,273.649480561042 L363.36349635278583,265.53468345609474 M363.36349635278583,265.53468345609474 L369.14694777729835,257.65428142491163 M369.14694777729835,257.65428142491163 L375.93158619812937,250.05024364314158 M375.93158619812937,250.05024364314158 L383.67873649559596,242.76289678470184 M383.67873649559596,242.76289678470184 L392.3448651772898,235.8307056585963 M392.3448651772898,235.8307056585963 L401.8817285799415,229.29012807471952 M401.8817285799415,229.29012807471952 L412.2367223039875,223.17543204215087 M412.2367223039875,223.17543204215087 L423.3531887469084,217.5185322696937 M423.3531887469084,217.5185322696937 L435.17060465359316,212.34883618400676 M435.17060465359316,212.34883618400676 L447.62508707991276,207.69318673650255 M447.62508707991276,207.69318673650255 L460.6495901926279,203.57561874707318 M460.6495901926279,203.57561874707318 L474.1742979884507,200.01738680303595 M474.1742979884507,200.01738680303595 L488.1270131891365,197.0367831110759 M488.1270131891365,197.0367831110759 L502.43338416479014,194.64914571764854 M502.43338416479014,194.64914571764854 L517.0174573705053,192.86669976305242 M517.0174573705053,192.86669976305242 L531.8018833210604,191.69858766609934 M531.8018833210604,191.69858766609934 L546.7083496616048,191.15077982359952 M546.7083496616048,191.15077982359952 L561.6580431430859,191.2260678028773 M561.6580431430859,191.2260678028773 L576.5718452059834,191.92407820517084 M576.5718452059834,191.92407820517084 L591.3708219820234,193.2412368118912 M591.3708219820234,193.2412368118912 L605.9766077130047,195.17080606406557 M605.9766077130047,195.17080606406557 L620.311720327175,197.7029125293732 M620.311720327175,197.7029125293732 L634.3000548642549,200.82452715538702 M634.3000548642549,200.82452715538702 L647.8670215674806,204.51965610360915 M647.8670215674806,204.51965610360915 L660.9401834873969,208.76924651809694 M660.9401834873969,208.76924651809694 L673.4494530764682,213.55135893976453 M673.4494530764682,213.55135893976453 L685.3274014803335,218.8412904299963 M685.3274014803335,218.8412904299963 L696.5098184053244,224.61155158004567 M447.1791805383964,374.49399379539943 L436.7301267438293,368.53673867841377 M436.7301267438293,368.53673867841377 L405.80257832148175,386.3749170070505 M450.20784899448574,366.7508447586961 L441.20466845795227,361.1505973329079 M441.20466845795227,361.1505973329079 L433.104417913269,355.1257923872401 M433.104417913269,355.1257923872401 L425.96985307534777,348.724927413568 M425.96985307534777,348.724927413568 L419.85575720391006,341.9993570294705 M419.85575720391006,341.9993570294705 L414.80854125867114,335.0028564284152 M414.80854125867114,335.0028564284152 L410.8659535672525,327.79113642241657 M410.8659535672525,327.79113642241657 L408.05682277536744,320.42141314368837 M408.05682277536744,320.42141314368837 L406.4008742293805,312.9519138659476 M406.4008742293805,312.9519138659476 L405.90872414835803,305.44140799023916 M405.90872414835803,305.44140799023916 L406.5817568766374,297.9487591071092 M406.5817568766374,297.9487591071092 L408.41229530591426,290.5324109904353 M408.41229530591426,290.5324109904353 L411.3836805984895,283.25001167060583 M411.3836805984895,283.25001167060583 L415.47050036224346,276.1579017111936 M415.47050036224346,276.1579017111936 L420.6388031899399,269.3107506552041 M420.6388031899399,269.3107506552041 L426.84650735558637,262.76112133452875 M426.84650735558637,262.76112133452875 L434.0436882483336,256.5591040894683 M434.0436882483336,256.5591040894683 L442.17312668727254,250.75195250311225 M442.17312668727254,250.75195250311225 L451.17062296255233,245.38377704654795 M451.17062296255233,245.38377704654795 L460.96567841418596,240.49521053118144 M460.96567841418596,240.49521053118144 L471.48192593122246,236.12315484360855 M471.48192593122246,236.12315484360855 L482.6378177509383,232.30052279624977 M482.6378177509383,232.30052279624977 L494.34713314906594,229.056026731269 M494.34713314906594,229.056026731269 L506.51974446794156,226.41395912801357 M506.51974446794156,226.41395912801357 L519.0621059790808,224.3941363273501 M519.0621059790808,224.3941363273501 L531.8781722046464,223.0115926356698 M531.8781722046464,223.0115926356698 L544.8697977952796,222.27670053086757 M544.8697977952796,222.27670053086757 L557.9376706525992,222.1949200097056 M557.9376706525992,222.1949200097056 L570.9819373412555,222.76685971070873 M570.9819373412555,222.76685971070873 L583.9028799882283,223.9882537412886 M583.9028799882283,223.9882537412886 L596.6016501463853,225.8499956754991 M596.6016501463853,225.8499956754991 L608.9809715377336,228.33817911873618 M608.9809715377336,228.33817911873618 L620.9458718369445,231.43417738436668 M620.9458718369445,231.43417738436668 L632.4043161413288,235.11479519457095 M632.4043161413288,235.11479519457095 L643.2678597464867,239.35241826593594 M643.2678597464867,239.35241826593594 L653.4523782033561,244.1151582854476 M653.4523782033561,244.1151582854476 L662.8786250464763,249.36709886038844 M662.8786250464763,249.36709886038844 L671.4728845360512,255.06851327492302 M671.4728845360512,255.06851327492302 L679.1675402963319,261.1761298928975 M679.1675402963319,261.1761298928975 L685.9015769715074,267.64345651287147 M685.9015769715074,267.64345651287147 L691.6211425481364,274.4210618768185 M691.6211425481364,274.4210618768185 L696.2799441887854,281.45696956829147 M696.2799441887854,281.45696956829147 L699.8396557080564,288.69702118106886 M699.8396557080564,288.69702118106886 L702.2703297141941,296.085241872304 M702.2703297141941,296.085241872304 L703.5506810052049,303.56427661904513 M703.5506810052049,303.56427661904513 L703.6682928795376,311.0758233609467 M703.6682928795376,311.0758233609467 L702.6198017196668,318.56109616260926 M702.6198017196668,318.56109616260926 L700.4109644752403,325.96126712528127 M700.4109644752403,325.96126712528127 L697.0568583897661,333.2178868273168 M697.0568583897661,333.2178868273168 L692.5815109156273,340.27349293391313 M692.5815109156273,340.27349293391313 L687.0181588609681,347.0719126943781 M687.0181588609681,347.0719126943781 L680.4087343781349,353.5588718165628 M680.4087343781349,353.5588718165628 L672.8037641838871,359.6823534820736 M672.8037641838871,359.6823534820736 L664.2619593522936,365.3931172705516 M664.2619593522936,365.3931172705516 L654.8497916359892,370.6450642147359 M654.8497916359892,370.6450642147359 L644.640968484834,375.3956999942238 M644.640968484834,375.3956999942238 L633.7158931944434,379.60644032384045 M633.7158931944434,379.60644032384045 L622.1609685305897,383.24305199882036 M622.1609685305897,383.24305199882036 L610.06793186704,386.27586853372287 M610.06793186704,386.27586853372287 L597.533082585574,388.6801288970785 M597.533082585574,388.6801288970785 L584.6564983759487,390.43615098272 M584.6564983759487,390.43615098272 L571.5411296081168,391.52956158717143 M571.5411296081168,391.52956158717143 L558.2920236160888,391.9513994270901 M558.2920236160888,391.9513994270901 L545.0152960343497,391.698213391451 M545.0152960343497,391.698213391451 L531.8173542931453,390.77206198798973 M531.8173542931453,390.77206198798973 L518.8038952519621,389.1805551831077 M518.8038952519621,389.1805551831077 L506.0790370828497,386.9367175125101 M506.0790370828497,386.9367175125101 L493.74443857773826,384.0589124292155 M493.74443857773826,384.0589124292155 L481.89839771704055,380.5706599027452 M481.89839771704055,380.5706599027452 L470.6350882371788,376.5004099867182 M470.6350882371788,376.5004099867182 L460.0437265844474,371.88129873551657 M460.0437265844474,371.88129873551657 L450.20784899448574,366.7508447586961 M405.80257832148175,386.3749170070505 L405.78530555728605,391.1898935983818 M436.7060533418461,373.3477038690489 L436.7301267438293,368.53673867841377 M450.18080403555393,371.56140762457716 L450.20784899448574,366.7508447586961" stroke="black"  stroke-width="4"  fill="red"/>
<path d="M436.7060533418461,373.3477038690489 L141.7651997068258,543.5373353149981 M141.72348438410597,538.6886376482851 L141.7651997068258,543.5373353149981 M141.72348438410597,538.6886376482851 L87.61029838185993,569.8996683015024 M87.66430443463622,574.7551585286778 L87.61029838185993,569.8996683015024 M87.66430443463622,574.7551585286778 L79.0927811682995,579.7011820030434 M79.0927811682995,579.7011820030434 L79.0088321808459,572.4155179261351 M436.7421674329045,366.1304590818498 L79.0088321808459,572.4155179261351 M436.7060533418461,373.3477038690489 L436.7421674329045,366.1304590818498 M447.1527852944248,379.30630008691486 L436.7060533418461,373.3477038690489 M152.21135222973655,549.6854709569144 L151.12085539074087,547.9878094091396 M151.12085539074087,547.9878094091396 L149.44705107431025,546.463179263983 M149.44705107431025,546.463179263983 L147.26320766310917,545.1780542775897 M147.26320766310917,545.1780542775897 L144.66477251085726,544.1884152668453 M144.66477251085726,544.1884152668453 L141.7651997068258,543.5373353149981 M152.21135222973655,549.6854709569144 L447.1527852944248,379.30630008691486 M152.17195835738613,544.8354323873016 L152.21135222973655,549.6854709569144 M152.17195835738613,544.8354323873016 L151.08122287208957,543.13814094335 M151.08122287208957,543.13814094335 L149.40704845840224,541.6138432803408 M149.40704845840224,541.6138432803408 L147.22271972998496,540.3289986201629 M147.22271972998496,540.3289986201629 L144.6237052531888,539.3395755269189 M144.6237052531888,539.3395755269189 L141.72348438410597,538.6886376482851 M87.61029838185993,569.8996683015024 L98.05810773814551,576.0815527164265 M98.05810773814551,576.0815527164265 L152.17195835738613,544.8354323873016 M87.66430443463622,574.7551585286778 L98.10979278845195,580.938383593161 M98.05810773814551,576.0815527164265 L98.10979278845195,580.938383593161 M89.5381484229971,585.8899756594353 L98.10979278845195,580.938383593161 M79.0927811682995,579.7011820030434 L89.5381484229971,585.8899756594353 M89.5381484229971,585.8899756594353 L89.45768120330371,578.6022999895978 M79.0088321808459,572.4155179261351 L89.45768120330371,578.6022999895978 M447.1527852944248,379.30630008691486 L447.1923825355261,372.0870429857446 M447.1923825355261,372.0870429857446 L436.7421674329045,366.1304590818498 M89.45768120330371,578.6022999895978 L447.1923825355261,372.0870429857446" stroke="black"  stroke-width="4"  fill="red"/>
<path d="M45.08719153220903,544.5576007982947 L45.023781050723755,539.7086805055039 M40.80461796920832,547.0164853281074 L40.740232177120504,542.167028671815 M45.08719153220903,544.5576007982947 L40.80461796920832,547.0164853281074 M45.023781050723755,539.7086805055039 L40.740232177120504,542.167028671815 M145.2603194852914,608.8492201764005 L145.2191442679529,603.9863571374498 M40.80461796920832,547.0164853281074 L145.2603194852914,608.8492201764005 M40.740232177120504,542.167028671815 L145.2191442679529,603.9863571374498 M149.54348150702415,606.362520431588 L149.50328199754645,601.5001935305647 M145.2603194852914,608.8492201764005 L149.54348150702415,606.362520431588 M145.2191442679529,603.9863571374498 L149.50328199754645,601.5001935305647 M152.67210020382097,552.2109458649364 L152.63280070412736,547.3603569398567 M149.54348150702415,606.362520431588 L152.67210020382097,552.2109458649364 M149.50328199754645,601.5001935305647 L152.63280070412736,547.3603569398567 M148.41339033707936,545.7869051560485 L148.373158245264,540.9377166806506 M152.67210020382097,552.2109458649364 L152.48551487405484,550.441427976147 M152.48551487405484,550.441427976147 L151.68725937809285,548.7346263146278 M151.68725937809285,548.7346263146278 L150.31075016723577,547.1613799908826 M150.31075016723577,547.1613799908826 L148.41339033707936,545.7869051560485 M152.63280070412736,547.3603569398567 L152.4461798308729,545.5912246398105 M152.4461798308729,545.5912246398105 L151.6477512892643,543.8847950222328 M151.6477512892643,543.8847950222328 L150.27093883358455,542.3118917360259 M150.27093883358455,542.3118917360259 L148.373158245264,540.9377166806506 M137.44229432070125,543.2455240766151 L137.399610311527,538.3968900921379 M148.41339033707936,545.7869051560485 L146.07405102992902,544.668169059592 M146.07405102992902,544.668169059592 L143.3899200061809,543.8514715893975 M143.3899200061809,543.8514715893975 L140.4723358528679,543.3706275794804 M140.4723358528679,543.3706275794804 L137.44229432070125,543.2455240766151 M148.373158245264,540.9377166806506 L146.03329817163822,539.8192246429161 M146.03329817163822,539.8192246429161 L143.34856799612282,539.0027053723315 M143.34856799612282,539.0027053723315 L140.4303311214254,538.5219662931233 M140.4303311214254,538.5219662931233 L137.399610311527,538.3968900921379 M137.44229432070125,543.2455240766151 L45.08719153220903,544.5576007982947 M137.399610311527,538.3968900921379 L45.023781050723755,539.7086805055039" stroke="black"  stroke-width="4"  fill="red"/></svg>