<svg viewBox="0 0 800 800" xmlns="http://www.w3.org/2000/svg"><path d="M696.4265700317246,229.3864950976626 L706.8961823201578,235.63800490771007 M706.8961823201578,235.63800490771007 L716.5446931242527,242.31111295242098 M716.5446931242527,242.31111295242098 L725.3183608601598,249.37050864273556 M725.3183608601598,249.37050864273556 L733.1678794401893,256.7786881258762 M733.1678794401893,256.7786881258762 L740.0487125070744,264.4961222388165 M740.0487125070744,264.4961222388165 L745.9212693648869,272.4814726888469 M745.9212693648869,272.4814726888469 L750.7512512215876,280.69176168373605 M750.7512512215876,280.69176168373605 L754.5098616326495,289.08260476514147 M754.5098616326495,289.08260476514147 L757.1739603234378,297.60841291905956 M757.1739603234378,297.60841291905956 L758.7262502796126,306.22268527347836 M758.7262502796126,306.22268527347836 L759.1556008932512,314.8781353712332 M759.1556008932512,314.8781353712332 L758.4568234791841,323.52711307984566 M758.4568234791841,323.52711307984566 L756.631112175148,332.1217011615552 M756.631112175148,332.1217011615552 L753.6858894693936,340.61408349182005 M753.6858894693936,340.61408349182005 L749.6348882248137,348.9567717445818 M749.6348882248137,348.9567717445818 L744.498100481658,357.10294241347304 M744.498100481658,357.10294241347304 L738.3017936336023,365.0066082532466 M738.3017936336023,365.0066082532466 L731.0782830027982,372.6229990021855 M731.0782830027982,372.6229990021855 L722.8659897424415,379.9087571288519 M722.8659897424415,379.9087571288519 L713.7090350377673,386.8222558215685 M713.7090350377673,386.8222558215685 L703.657232389895,393.3238297959369 M703.657232389895,393.3238297959369 L692.7656432363823,399.3760725076629 M692.7656432363823,399.3760725076629 L681.0944485274341,404.9439800117127 M681.0944485274341,404.9439800117127 L668.7085147139071,409.99532366123566 M668.7085147139071,409.99532366123566 L655.6770329228663,414.50073029128095 M655.6770329228663,414.50073029128095 L642.0731844142094,418.43394359170986 M642.0731844142094,418.43394359170986 L627.9736251694369,421.77200549576423 M627.9736251694369,421.77200549576423 L613.4580931910311,424.49536542996964 M613.4580931910311,424.49536542996964 L598.6088660401905,426.5880861616812 M598.6088660401905,426.5880861616812 L583.5103010805293,428.03787960173037 M583.5103010805293,428.03787960173037 L568.2483315211939,428.83621485838205 M568.2483315211939,428.83621485838205 L552.9098535139628,428.97841559924103 M552.9098535139628,428.97841559924103 L537.5822744555438,428.46363612573975 M537.5822744555438,428.46363612573975 L522.3529024802269,427.2949133290498 M522.3529024802269,427.2949133290498 L507.3084535227687,425.4791063062671 M507.3084535227687,425.4791063062671 L492.53446605862393,423.0268752429258 M492.53446605862393,423.0268752429258 L478.11480646383916,419.9526034559102 M478.11480646383916,419.9526034559102 L464.13112411434236,416.2742906124554 M464.13112411434236,416.2742906124554 L450.66239336385763,412.013440637118 M450.66239336385763,412.013440637118 L437.78437821027376,407.1949049332613 M437.78437821027376,407.1949049332613 L425.5692450033225,401.84671900039064 M425.5692450033225,401.84671900039064 L414.08511015550357,395.9999110491215 M696.4265700317246,229.3864950976626 L696.5069175689714,224.60846185506944 M696.5069175689714,224.60846185506944 L706.9788598571117,230.85852783512684 M706.9788598571117,230.85852783512684 L716.6295275599462,237.5300964441185 M716.6295275599462,237.5300964441185 L725.4051669864297,244.58786556932887 M725.4051669864297,244.58786556932887 L733.2564607941949,251.99434031737138 M733.2564607941949,251.99434031737138 L740.1388623027349,259.7100009202926 M740.1388623027349,259.7100009202926 L746.0127714713021,267.6935188581841 M746.0127714713021,267.6935188581841 L750.8438812273898,275.9019264427758 M750.8438812273898,275.9019264427758 L754.6033879691248,284.29084959060856 M754.6033879691248,284.29084959060856 L757.2681454354762,292.8147098813115 M757.2681454354762,292.8147098813115 L758.8208518540425,301.42701718353345 M758.8208518540425,301.42701718353345 L759.2503731742061,310.0804958953524 M759.2503731742061,310.0804958953524 L758.5515185537969,318.727506755611 M758.5515185537969,318.727506755611 L756.7254813732839,327.3201433910589 M756.7254813732839,327.3201433910589 L753.7796847492782,335.8106004515671 M753.7796847492782,335.8106004515671 L749.727863595005,344.1514002458283 M749.727863595005,344.1514002458283 L744.5900134304279,352.2957296894606 M744.5900134304279,352.2957296894606 L738.3924065781703,360.19761171221836 M738.3924065781703,360.19761171221836 L731.1673647051709,367.8122859001738 M731.1673647051709,367.8122859001738 L722.9533167515444,375.0964042052509 M722.9533167515444,375.0964042052509 L713.7943930545663,382.00834887094675 M713.7943930545663,382.00834887094675 L703.7404176404326,388.508463196618 M703.7404176404326,388.508463196618 L692.8464637543037,394.5593486928195 M692.8464637543037,394.5593486928195 L681.1727254120557,400.12600891783353 M681.1727254120557,400.12600891783353 L668.7840832952448,405.1762221028714 M668.7840832952448,405.1762221028714 L655.7497438448515,409.6806213276161 M655.7497438448515,409.6806213276161 L642.1429046405751,413.6129558440816 M642.1429046405751,413.6129558440816 L628.0402388689654,416.9502724335596 M628.0402388689654,416.9502724335596 L613.5215025264702,419.67302464027523 M613.5215025264702,419.67302464027523 L598.6689918260141,421.7652785801824 M598.6689918260141,421.7652785801824 L583.5670833249255,423.2147487416933 M583.5670833249255,423.2147487416933 L568.301729841369,424.01290602030485 M568.301729841369,424.01290602030485 L552.9598473992581,424.15507506217085 M552.9598473992581,424.15507506217085 L537.6288634127486,423.64041034580134 M537.6288634127486,423.64041034580134 L522.396106025867,422.4719481267265 M522.396106025867,422.4719481267265 L507.34831104803754,420.65654606593006 M507.34831104803754,420.65654606593006 L492.57103654717866,418.20486211433945 M492.57103654717866,418.20486211433945 L478.1481680832891,415.1312765689395 M478.1481680832891,415.1312765689395 L464.1613736715451,411.45378531006867 M464.1613736715451,411.45378531006867 L450.68964564500243,407.19388772667565 M450.68964564500243,407.19388772667565 L437.8087651905173,402.3764299650462 M437.8087651905173,402.3764299650462 L425.5909149611053,397.0294415740381 M425.5909149611053,397.0294415740381 L414.10422667957795,391.1839441536086 M414.10422667957795,391.1839441536086 L414.08511015550357,395.9999110491215 M407.81708037998317,392.4129592008614 L397.6131642244444,385.84960393308177 M397.6131642244444,385.84960393308177 L388.29443943119884,378.8799142343655 M388.29443943119884,378.8799142343655 L379.91156591118954,371.54385350186874 M379.91156591118954,371.54385350186874 L372.509661429269,363.8833225255275 M372.509661429269,363.8833225255275 L366.1280725717437,355.9418797862485 M366.1280725717437,355.9418797862485 L360.8001996837323,347.76450853939036 M360.8001996837323,347.76450853939036 L356.5533356396464,339.397309615214 M356.5533356396464,339.397309615214 L353.40858193600366,330.8872481912494 M353.40858193600366,330.8872481912494 L351.38077113975424,322.2818611456762 M351.38077113975424,322.2818611456762 L350.4784339129657,313.6290022789294 M350.4784339129657,313.6290022789294 L350.70385592357053,304.9765445764517 M350.70385592357053,304.9765445764517 L352.05305772570927,296.3721432255883 M352.05305772570927,296.3721432255883 L354.5159555080002,287.86293805599314 M354.5159555080002,287.86293805599314 L358.0763786372107,279.4953522960213 M358.0763786372107,279.4953522960213 L362.71228021237346,271.31480364389665 M362.71228021237346,271.31480364389665 L368.39595036517653,263.36547964722854 M368.39595036517653,263.36547964722854 L375.0940900016496,255.69014073244037 M375.0940900016496,255.69014073244037 L382.76815911957243,248.32987464357387 M382.76815911957243,248.32987464357387 L391.37454414024614,241.32393514439053 M391.37454414024614,241.32393514439053 L400.86483289706524,234.70950855344194 M400.86483289706524,234.70950855344194 L411.18621260672074,228.52157604874571 M411.18621260672074,228.52157604874571 L422.28154438027104,222.79275970319765 M422.28154438027104,222.79275970319765 L434.08992655118385,217.55311628981596 M434.08992655118385,217.55311628981596 L446.5468576365979,212.83009881816793 M446.5468576365979,212.83009881816793 L459.58465252839494,208.6483314581149 M459.58465252839494,208.6483314581149 L473.1327415098722,205.02962079971917 M473.1327415098722,205.02962079971917 L487.11811303911884,201.9927350711778 M487.11811303911884,201.9927350711778 L501.4655481453631,199.5534354234887 M501.4655481453631,199.5534354234887 L516.0981723356706,197.72433564108724 M516.0981723356706,197.72433564108724 L530.9376521424382,196.51489356097713 M530.9376521424382,196.51489356097713 L545.9046819657394,195.93135324406882 M545.9046819657394,195.93135324406882 L560.9192892742682,195.9767563110183 M560.9192892742682,195.9767563110183 L575.9013915895264,196.65081120151078 M575.9013915895264,196.65081120151078 L590.770900403389,197.9500949308128 M590.770900403389,197.9500949308128 L605.4483940092184,199.86787091288483 M605.4483940092184,199.86787091288483 L619.8552971235913,202.3942152457397 M619.8552971235913,202.3942152457397 L633.9143627471392,205.516060581562 M633.9143627471392,205.516060581562 L647.5500107566666,209.21722162061525 M647.5500107566666,209.21722162061525 L660.6887361980549,213.47845105858892 M660.6887361980549,213.47845105858892 L673.2594245207453,218.27757407929226 M673.2594245207453,218.27757407929226 L685.1937605480296,223.58952800005423 M685.1937605480296,223.58952800005423 L696.4265700317246,229.3864950976626 M414.08511015550357,395.9999110491215 L445.06432951880504,378.10808646890814 M445.06432951880504,378.10808646890814 L438.7964081769094,374.53299594574406 M438.7964081769094,374.53299594574406 L407.81708037998317,392.4129592008614 M450.1825217950786,371.55556263343334 L460.01602959127126,376.68707582721845 M460.01602959127126,376.68707582721845 L470.6048397676723,381.3071398028444 M470.6048397676723,381.3071398028444 L481.86543635771227,385.3782285123683 M481.86543635771227,385.3782285123683 L493.70862464027607,388.867199354814 M493.70862464027607,388.867199354814 L506.04025387693196,391.7455966728918 M506.04025387693196,391.7455966728918 L518.7620501449431,393.9898958762586 M518.7620501449431,393.9898958762586 L531.7723795701861,395.58172991159523 M531.7723795701861,395.58172991159523 L544.9671495233597,396.50807169372007 M544.9671495233597,396.50807169372007 L558.2406890808409,396.76130976788653 M558.2406890808409,396.76130976788653 L571.4866169109246,396.3393852241777 M571.4866169109246,396.3393852241777 L584.5988433778543,395.2457498481458 M584.5988433778543,395.2457498481458 L597.4723468382243,393.48936667590647 M597.4723468382243,393.48936667590647 L610.0042020371096,391.0846117254109 M610.0042020371096,391.0846117254109 L622.0943556191019,388.051170963583 M622.0943556191019,388.051170963583 L633.646531522818,384.41381028928686 M633.646531522818,384.41381028928686 L644.5690144794742,380.2022020356039 M644.5690144794742,380.2022020356039 L654.775422418434,375.4505861760513 M654.775422418434,375.4505861760513 L664.185371163706,370.1975546528294 M664.185371163706,370.1975546528294 L672.7251706417494,364.4856102528371 M672.7251706417494,364.4856102528371 L680.3283646058312,358.36086116858365 M680.3283646058312,358.36086116858365 L686.9362554989066,351.87255772078805 M686.9362554989066,351.87255772078805 L692.4983280413132,345.0727272392498 M692.4983280413132,345.0727272392498 L696.9726593547343,338.0156550415168 M696.9726593547343,338.0156550415168 L700.3260197347444,330.75752535235347 M700.3260197347444,330.75752535235347 L702.5343865609432,323.35581231033007 M702.5343865609432,323.35581231033007 L703.5826852330052,315.8689774133372 M703.5826852330052,315.8689774133372 L703.4651591921294,308.3558607857794 M703.4651591921294,308.3558607857794 L702.1851702661131,300.87526065197113 M702.1851702661131,300.87526065197113 L699.755131226598,293.48549133160077 M699.755131226598,293.48549133160077 L696.1963212733308,286.243919977893 M696.1963212733308,286.243919977893 L691.5386797950187,279.2065333395585 M691.5386797950187,279.2065333395585 L685.8205230612714,272.4275014063204 M685.8205230612714,272.4275014063204 L679.0881321967386,265.95881177094606 M679.0881321967386,265.95881177094606 L671.3953458168697,259.84990637486544 M671.3953458168697,259.84990637486544 L662.8031643003641,254.1472875166174 M662.8031643003641,254.1472875166174 L653.3791876081099,248.8942362726448 M653.3791876081099,248.8942362726448 L643.1971137509958,244.1304880622548 M643.1971137509958,244.1304880622548 L632.3361702870985,239.89196717714336 M632.3361702870985,239.89196717714336 L620.8804617312544,236.2105689674725 M620.8804617312544,236.2105689674725 L608.918411952712,233.11391382923728 M608.918411952712,233.11391382923728 L596.5420342810617,230.62520218783374 M596.5420342810617,230.62520218783374 L583.8462788725244,228.7630648722485 M583.8462788725244,228.7630648722485 L570.928399374993,227.54141137496416 M570.928399374993,227.54141137496416 L557.8872213004979,226.96935015300687 M557.8872213004979,226.96935015300687 L544.822439429545,227.0511480510295 M544.822439429545,227.0511480510295 L531.8338841017153,227.78619629463236 M531.8338841017153,227.78619629463236 L519.0208444566061,229.1690336684041 M519.0208444566061,229.1690336684041 L506.4814431505612,231.18928538222906 M506.4814431505612,231.18928538222906 L494.31170343552265,233.8319137812236 M494.31170343552265,233.8319137812236 L482.60514935935896,237.07709812005675 M482.60514935935896,237.07709812005675 L471.45188764571867,240.90054053130808 M471.45188764571867,240.90054053130808 L460.9381189345695,245.27352232187297 M460.9381189345695,245.27352232187297 L451.1453719251365,250.16312342199697 M451.1453719251365,250.16312342199697 L442.14999579884966,255.53243383694684 M442.14999579884966,255.53243383694684 L434.02247257933686,261.34081186235744 M434.02247257933686,261.34081186235744 L426.8269867350234,267.54413741446956 M426.8269867350234,267.54413741446956 L420.62074376507644,274.09514665988877 M420.62074376507644,274.09514665988877 L415.45365623942115,280.94373844594145 M415.45365623942115,280.94373844594145 L411.3677956238857,288.0373386531804 M411.3677956238857,288.0373386531804 L408.3971049273277,295.32126606184 M408.3971049273277,295.32126606184 L406.5669901176498,302.73916814151863 M406.5669901176498,302.73916814151863 L405.8941056510125,310.2333846871541 M405.8941056510125,310.2333846871541 L406.3861263699916,317.74545965363353 M406.3861263699916,317.74545965363353 L408.0416678193343,325.21651716331814 M408.0416678193343,325.21651716331814 L410.8501158846442,332.5877756195687 M410.8501158846442,332.5877756195687 L414.7917495304637,339.8009957358439 M414.7917495304637,339.8009957358439 L419.8377466457184,346.7989496433462 M419.8377466457184,346.7989496433462 L425.95036763451856,353.5259151663052 M425.95036763451856,353.5259151663052 L433.08321241960755,359.92810620172634 M433.08321241960755,359.92810620172634 L441.18151071718955,365.95415776781215 M441.18151071718955,365.95415776781215 L450.1825217950786,371.55556263343334 M445.06432951880504,378.10808646890814 L445.09025949901,373.29613862404517 M414.10422667957795,391.1839441536086 L445.09025949901,373.29613862404517 M407.83480375324973,387.5977969941093 L397.62862057839783,381.03591549839416 M397.62862057839783,381.03591549839416 L388.3078266159365,374.06779274293194 M388.3078266159365,374.06779274293194 L379.92309285998624,366.7333834702737 M379.92309285998624,366.7333834702737 L372.51954683669027,359.07457934845735 M372.51954683669027,359.07457934845735 L366.1365435285542,351.1349293235662 M366.1365435285542,351.1349293235662 L360.8074902828117,342.95940674792314 M360.8074902828117,342.95940674792314 L356.5596855578926,334.5941022430852 M356.5596855578926,334.5941022430852 L353.4142350110094,326.08597052379804 M353.4142350110094,326.08597052379804 L351.38597394397385,317.4825378132197 M351.38597394397385,317.4825378132197 L350.48343433620875,308.83164711921495 M350.48343433620875,308.83164711921495 L350.70890178416283,300.1811605630357 M350.70890178416283,300.1811605630357 L352.0583953936576,291.5787224498342 M352.0583953936576,291.5787224498342 L354.5218285796964,283.0714617779747 M354.5218285796964,283.0714617779747 L358.083026629781,274.7057910438021 M358.083026629781,274.7057910438021 L362.719937319096,266.52711738257307 M362.719937319096,266.52711738257307 L368.40484427134714,258.5796180043347 M368.40484427134714,258.5796180043347 L375.10444072892193,250.90604327448872 M375.10444072892193,250.90604327448872 L382.78017795706427,243.54747121588338 M382.78017795706427,243.54747121588338 L391.3884326209448,236.54314625567727 M391.3884326209448,236.54314625567727 L400.8807818408869,229.93024582243442 M400.8807818408869,229.93024582243442 L411.2044012548809,223.74374269125178 M411.2044012548809,223.74374269125178 L422.30213954813604,218.0162510636172 M422.30213954813604,218.0162510636172 L434.1130819037204,212.77782042928834 M434.1130819037204,212.77782042928834 L446.5727129971448,208.0558971204604 M446.5727129971448,208.0558971204604 L459.61333327331863,203.87509929614194 M459.61333327331863,203.87509929614194 L473.1643580219778,200.25722820750212 M473.1643580219778,200.25722820750212 L487.15276024852517,197.2210474743993 M487.15276024852517,197.2210474743993 L501.5033051113936,194.78231436941633 M501.5033051113936,194.78231436941633 L516.1391019367201,192.9536395667614 M516.1391019367201,192.9536395667614 L530.9818007956435,191.74447856807603 M530.9818007956435,191.74447856807603 L545.9520794383285,191.1610738907716 M545.9520794383285,191.1610738907716 L560.9699485466249,191.20646640361588 M560.9699485466249,191.20646640361588 L575.9553088235297,191.8803646175673 M575.9553088235297,191.8803646175673 L590.828054919007,193.17934639533735 M590.828054919007,193.17934639533735 L605.5087483912687,195.0966768155141 M605.5087483912687,195.0966768155141 L619.9187973534671,197.62243442600652 M619.9187973534671,197.62243442600652 L633.9809384255765,200.74355510024617 M633.9809384255765,200.74355510024617 L647.6195753873571,204.443857520345 M647.6195753873571,204.443857520345 L660.7611875487318,208.70409910560278 M660.7611875487318,208.70409910560278 L673.3346450436115,213.50211046726486 M673.3346450436115,213.50211046726486 L685.2716178810917,218.812835037227 M685.2716178810917,218.812835037227 L696.5069175689714,224.60846185506944 M445.09025949901,373.29613862404517 L438.82094507824485,369.7218527463598 M438.82094507824485,369.7218527463598 L407.83480375324973,387.5977969941093 M450.20956624692553,366.7450899641776 L441.2065545173539,361.1449475413658 M441.2065545173539,361.1449475413658 L433.1064558499632,355.12025555900186 M433.1064558499632,355.12025555900186 L425.97202478301415,348.7195105996475 M425.97202478301415,348.7195105996475 L419.8580435490586,341.99406631799764 M419.8580435490586,341.99406631799764 L414.81092223762,334.9976968992512 M414.81092223762,334.9976968992512 L410.86840846855006,327.78611211086127 M410.86840846855006,327.78611211086127 L408.0593303470331,320.41652701225627 M408.0593303470331,320.41652701225627 L406.40341284958976,312.947167785409 M406.40341284958976,312.947167785409 L405.91127199623514,305.43680272945574 M405.91127199623514,305.43680272945574 L406.5842921053507,297.9442943312676 M406.5842921053507,297.9442943312676 L408.41479621257554,290.52808526891874 M408.41479621257554,290.52808526891874 L411.3861257925588,283.2458224919143 M411.3861257925588,283.2458224919143 L415.4728689296557,276.15384550745785 M415.4728689296557,276.15384550745785 L420.64107485320875,269.30682283351763 M420.64107485320875,269.30682283351763 L426.84866262624536,262.75731631644726 M426.84866262624536,262.75731631644726 L434.0457085739878,256.5554153573686 M434.0457085739878,256.5554153573686 L442.1749945883698,250.74837265338047 M442.1749945883698,250.74837265338047 L451.17232216326613,245.38029784851204 M451.17232216326613,245.38029784851204 L460.96719396051844,240.4918229923163 M460.96719396051844,240.4918229923163 L471.4832443010365,236.11984927948922 M471.4832443010365,236.11984927948922 L482.63892695109325,232.29728890534622 M482.63892695109325,232.29728890534622 L494.34802280303404,229.05285367370328 M494.34802280303404,229.05285367370328 L506.52040588906175,226.410835608431 M506.52040588906175,226.410835608431 L519.0625322346467,224.39105067884537 M519.0625322346467,224.39105067884537 L531.8783581627761,223.00853290944877 M531.8783581627761,223.00853290944877 L544.869740164287,222.27365458365534 M544.869740164287,222.27365458365534 L557.9373680028708,222.19187559585384 M557.9373680028708,222.19187559585384 L570.9813901153997,222.76380457315733 M570.9813901153997,222.76380457315733 L583.9020904985346,223.98517570296167 M583.9020904985346,223.98517570296167 L596.6006225585218,225.84688273006367 M596.6006225585218,225.84688273006367 L608.9797118412696,228.33501952060013 M608.9797118412696,228.33501952060013 L620.9443878021526,231.4309597371824 M620.9443878021526,231.4309597371824 L632.4026172641085,235.11150853689566 M632.4026172641085,235.11150853689566 L643.2659571810495,239.3490521540863 M643.2659571810495,239.3490521540863 L653.450284681222,244.11170287363674 M653.450284681222,244.11170287363674 L662.8763547850126,249.3635449762512 M662.8763547850126,249.3635449762512 L671.4704531347741,255.06485249095843 M671.4704531347741,255.06485249095843 L679.164964622544,261.1723545929349 M679.164964622544,261.1723545929349 L685.8988750365314,267.63955995245504 M685.8988750365314,267.63955995245504 L691.6183333730041,274.41703823831403 M691.6183333730041,274.41703823831403 L696.2770476625057,281.45281400860694 M696.2770476625057,281.45281400860694 L699.8366924382426,288.69272987256625 M699.8366924382426,288.69272987256625 L702.2673208699645,296.08081203685714 M702.2673208699645,296.08081203685714 L703.5476481547686,303.5597065539175 M703.5476481547686,303.5597065539175 L703.6652578239137,311.0711124565481 M703.6652578239137,311.0711124565481 L702.6167863229409,318.55624491156817 M702.6167863229409,318.55624491156817 L700.4079904935568,325.95627712323187 M700.4079904935568,325.95627712323187 L697.0539472965756,333.2127607658028 M697.0539472965756,333.2127607658028 L692.5786837338733,340.26823458187954 M692.5786837338733,340.26823458187954 L687.0154359904134,347.0665268739927 M687.0154359904134,347.0665268739927 L680.4061354323264,353.55336436761996 M680.4061354323264,353.55336436761996 L672.8013078290118,359.67673121966783 M672.8013078290118,359.67673121966783 L664.2596631537225,365.3873879330204 M664.2596631537225,365.3873879330204 L654.847671912768,370.639236404759 M654.847671912768,370.639236404759 L644.6390401740157,375.3897831112365 M644.6390401740157,375.3897831112365 L633.7141697255428,379.60044449072234 M633.7141697255428,379.60044449072234 L622.1594617130958,383.2369879803132 M622.1594617130958,383.2369879803132 L610.0666517903925,386.26974765080615 M610.0666517903925,386.26974765080615 L597.5320375336287,388.6739629349938 M597.5320375336287,388.6739629349938 L584.6556947561338,390.4299520957427 M584.6556947561338,390.4299520957427 L571.5405718975721,391.52334219906993 M571.5405718975721,391.52334219906993 L558.2917143223476,391.9451721296544 M558.2917143223476,391.9451721296544 L545.0152356753084,391.69199084117827 M545.0152356753084,391.69199084117827 L531.8175413915927,390.7658568027809 M531.8175413915927,390.7658568027809 L518.8043263489026,389.1743798381788 M518.8043263489026,389.1743798381788 L506.0797067671025,386.93058423887135 M506.0797067671025,386.93058423887135 L493.7453395320506,384.05283311356754 M493.7453395320506,384.05283311356754 L481.8995207811015,380.5646459907963 M481.8995207811015,380.5646459907963 L470.63642248494807,376.49447239074664 M470.63642248494807,376.49447239074664 L460.0452594171029,371.8754477465095 M460.0452594171029,371.8754477465095 L450.20956624692553,366.7450899641776 M407.83480375324973,387.5977969941093 L407.81708037998317,392.4129592008614 M438.7964081769094,374.53299594574406 L438.82094507824485,369.7218527463598 M450.1825217950786,371.55556263343334 L450.20956624692553,366.7450899641776" stroke="black"  stroke-width="4"  fill="red"/>
<path d="M438.7964081769094,374.53299594574406 L94.04373978946796,573.5097162696338 M93.99117402110483,568.6545852130929 L94.04373978946796,573.5097162696338 M93.99117402110483,568.6545852130929 L89.7073965969505,571.1259018446408 M89.76093786572255,575.9815691622299 L89.7073965969505,571.1259018446408 M89.76093786572255,575.9815691622299 L81.18955068136268,580.9286128458873 M81.18955068136268,580.9286128458873 L81.10629897733008,573.6426830549788 M438.83321759423006,367.31548402789605 L81.10629897733008,573.6426830549788 M438.7964081769094,374.53299594574406 L438.83321759423006,367.31548402789605 M445.06432951880504,378.10808646890814 L438.7964081769094,374.53299594574406 M100.31095030341032,577.2179127050282 L445.06432951880504,378.10808646890814 M100.31095030341032,577.2179127050282 L94.04373978946796,573.5097162696338 M100.2597771340595,572.3619772602681 L93.99117402110483,568.6545852130929 M100.31095030341032,577.2179127050282 L100.2597771340595,572.3619772602681 M95.97596435724665,574.8349627606459 L100.2597771340595,572.3619772602681 M89.7073965969505,571.1259018446408 L95.97596435724665,574.8349627606459 M89.76093786572255,575.9815691622299 L96.02811305086101,579.6914344529322 M95.97596435724665,574.8349627606459 L96.02811305086101,579.6914344529322 M87.45665320811065,584.6418192287508 L96.02811305086101,579.6914344529322 M81.18955068136268,580.9286128458873 L87.45665320811065,584.6418192287508 M87.45665320811065,584.6418192287508 L87.37549052524446,577.3546825046488 M81.10629897733008,573.6426830549788 L87.37549052524446,577.3546825046488 M445.06432951880504,378.10808646890814 L445.10322878666193,370.88936718525906 M445.10322878666193,370.88936718525906 L438.83321759423006,367.31548402789605 M87.37549052524446,577.3546825046488 L445.10322878666193,370.88936718525906" stroke="black"  stroke-width="4"  fill="red"/>
<path d="M45.0965046766853,544.5485121798961 L45.033095384127705,539.6996828029208 M40.81401141066726,547.0073506063541 L40.74962682579394,542.1579848759341 M45.0965046766853,544.5485121798961 L40.81401141066726,547.0073506063541 M45.033095384127705,539.6996828029208 L40.74962682579394,542.1579848759341 M145.2677544133626,608.8389261092284 L145.22657996804716,603.9761542475158 M40.81401141066726,547.0073506063541 L145.2677544133626,608.8389261092284 M40.74962682579394,542.1579848759341 L145.22657996804716,603.9761542475158 M149.55083612707918,606.3522729892978 L149.51063737133035,601.49003725546 M145.2677544133626,608.8389261092284 L149.55083612707918,606.3522729892978 M145.22657996804716,603.9761542475158 L149.51063737133035,601.49003725546 M149.55083612707918,606.3522729892978 L45.0965046766853,544.5485121798961 M149.51063737133035,601.49003725546 L45.033095384127705,539.6996828029208" stroke="black"  stroke-width="4"  fill="red"/></svg>