<svg viewBox="0 0 800 800" xmlns="http://www.w3.org/2000/svg"><path d="M706.6021399705019,229.4893344136999 L712.356803795652,231.38718626567788 M712.356803795652,231.38718626567788 L718.7049956190772,232.48898059622525 M718.7049956190772,232.48898059622525 L725.3095877342009,232.73602401323075 M725.3095877342009,232.73602401323075 L731.8197401485525,232.1151359502955 M731.8197401485525,232.1151359502955 L737.8896169422453,230.65941904890545 M737.8896169422453,230.65941904890545 L743.197010974781,228.4464114443992 M743.197010974781,228.4464114443992 L747.4605331942046,225.59390882268158 M747.4605331942046,225.59390882268158 L750.454564751042,222.2536050092768 M750.454564751042,222.2536050092768 L752.0212219676457,218.6028982485585 M752.0212219676457,218.6028982485585 L752.0784934420387,214.83544285204204 M752.0784934420387,214.83544285204204 L750.62445675914,211.15077708684044 M750.62445675914,211.15077708684044 L747.7371588219003,207.74375074309842 M747.7371588219003,207.74375074309842 L743.570165847347,204.7943186124746 M743.570165847347,204.7943186124746 L738.3443994798645,202.45804913979956 M738.3443994798645,202.45804913979956 L732.3363196727971,200.85805369681165 M732.3363196727971,200.85805369681165 L725.8634077139297,200.0785561907577 M725.8634077139297,200.0785561907577 L719.2673932658618,200.16059999452074 M719.2673932658618,200.16059999452074 L712.8964703137726,201.0998667448253 M712.8964703137726,201.0998667448253 L707.0870886266307,202.8469056330055 M707.0870886266307,202.8469056330055 L702.146246011393,205.30973423000785 M702.146246011393,205.30973423000785 L698.3354560333344,208.3585500625156 M698.3354560333344,208.3585500625156 L695.8568802914451,211.83250474099754 M695.8568802914451,211.83250474099754 L694.8425572730607,215.54808521102765 M694.8425572730607,215.54808521102765 L695.3472857409938,219.30871680809514 M695.3472857409938,219.30871680809514 L697.3454134394512,222.91518168581607 M697.3454134394512,222.91518168581607 L700.7320601152276,226.1761306461715 M700.7971437859082,219.4347860842405 L700.7320601152276,226.1761306461715 M700.7971437859082,219.4347860842405 L697.4097390441791,216.17457898492367 M697.4097390441791,216.17457898492367 L695.411157104691,212.56893493343247 M695.411157104691,212.56893493343247 L694.9063018703678,208.8091596543545 M694.9063018703678,208.8091596543545 L695.9208318318886,205.0944256486133 M695.9208318318886,205.0944256486133 L698.3999367968815,201.6212627523639 M698.3999367968815,201.6212627523639 L702.2115499054978,198.57314209436004 M702.2115499054978,198.57314209436004 L707.1534658095175,196.11087525598433 M707.1534658095175,196.11087525598433 L712.9641141656282,194.36423496560576 M712.9641141656282,194.36423496560576 L719.3364303644491,193.42518255161957 M719.3364303644491,193.42518255161957 L725.9338912706355,193.34315747109304 M725.9338912706355,193.34315747109304 L732.4082267858576,194.12247709575166 M732.4082267858576,194.12247709575166 L738.4176323170836,195.72210747511429 M738.4176323170836,195.72210747511429 L743.6445566816888,198.05784402587375 M743.6445566816888,198.05784402587375 L747.8124787259803,201.00660359436225 M747.8124787259803,201.00660359436225 L750.7004275007141,204.41285334579257 M750.7004275007141,204.41285334579257 L752.1548020262439,208.0966796146801 M752.1548020262439,208.0966796146801 L752.0975370585963,211.86327706153065 M752.0975370585963,211.86327706153065 L750.5305541799094,215.5131528539018 M750.5305541799094,215.5131528539018 L747.5358816111709,218.85269669262746 M747.5358816111709,218.85269669262746 L743.2714366839491,221.70455057991384 M743.2714366839491,221.70455057991384 L737.9628870337694,223.91705505136477 M737.9628870337694,223.91705505136477 L731.8916830525652,225.37244106952556 M731.8916830525652,225.37244106952556 L725.3801025005769,225.99318802390994 M725.3801025005769,225.99318802390994 L718.7740573943836,225.74620075084601 M718.7740573943836,225.74620075084601 L712.4244651539907,224.64465683954168 M712.4244651539907,224.64465683954168 L706.6685280624349,222.74723642017645 M706.6685280624349,222.74723642017645 L706.6021399705019,229.4893344136999 M705.8221555211558,223.2380156078109 L700.7320601152276,226.1761306461715 M706.6021399705019,229.4893344136999 L711.6922095434777,226.5499281741619 M711.6922095434777,226.5499281741619 L716.42887174114,227.9179712235126 M716.42887174114,227.9179712235126 L721.5935462216321,228.5909208351569 M721.5935462216321,228.5909208351569 L726.8750216280578,228.52811855895976 M726.8750216280578,228.52811855895976 L731.9549544277422,227.73337083316625 M731.9549544277422,227.73337083316625 L736.5272724983888,226.25467069019498 M736.5272724983888,226.25467069019498 L740.3166548531599,224.18130953312954 M740.3166548531599,224.18130953312954 L743.095219282832,221.63838229344128 M743.095219282832,221.63838229344128 L744.6962487503822,218.7791687754735 M744.6962487503822,218.7791687754735 L745.0240764224027,215.77585147769105 M745.0240764224027,215.77585147769105 L744.0597078457313,212.8090957094412 M744.0597078457313,212.8090957094412 L741.8618819850449,210.05711534541913 M741.8618819850449,210.05711534541913 L738.5632277858494,207.6850756500959 M738.5632277858494,207.6850756500959 L734.3622590060768,205.83518621221037 M734.3622590060768,205.83518621221037 L729.51138010883,204.61825930087656 M729.51138010883,204.61825930087656 L724.3017734490609,204.10713574403766 M724.3017734490609,204.10713574403766 L719.0459233518188,204.33243087647884 M719.0459233518188,204.33243087647884 L714.0591411182688,205.28064454504272 M714.0591411182688,205.28064454504272 L709.6406844168237,206.89501320477845 M709.6406844168237,206.89501320477845 L706.0558947542095,209.07887082646133 M706.0558947542095,209.07887082646133 L703.5203628821473,211.7013341139921 M703.5203628821473,211.7013341139921 L702.1869636328117,214.60508034457544 M702.1869636328117,214.60508034457544 L702.1365030771951,217.61574416004558 M702.1365030771951,217.61574416004558 L703.3727911038384,220.55230516928168 M703.3727911038384,220.55230516928168 L705.8221555211558,223.2380156078109 M711.7597031634143,219.8084985936438 L711.6922095434777,226.5499281741619 M706.6685280624349,222.74723642017645 L711.7597031634143,219.8084985936438 M705.8883447368733,216.49733944886214 L703.4384305268266,213.81224021288247 M703.4384305268266,213.81224021288247 L702.2018582136825,210.8763477342387 M702.2018582136825,210.8763477342387 L702.2523167890263,207.8663695802927 M702.2523167890263,207.8663695802927 L703.5859961472938,204.96328491157175 M703.5859961472938,204.96328491157175 L706.1220730919508,202.34141931221814 M706.1220730919508,202.34141931221814 L709.7076398358863,200.1580595685871 M709.7076398358863,200.1580595685871 L714.1270588806922,198.54405904357205 M714.1270588806922,198.54405904357205 L719.11493099527,197.59606163758392 M719.11493099527,197.59606163758392 L724.3719332380299,197.3708178928833 M724.3719332380299,197.3708178928833 L729.5826853509711,197.8818248692843 M729.5826853509711,197.8818248692843 L734.4346344588496,199.09847424652503 M734.4346344588496,199.09847424652503 L738.6365340793125,200.94794187863238 M738.6365340793125,200.94794187863238 L741.9359238661318,203.31944085507558 M741.9359238661318,203.31944085507558 L744.134245758135,206.0707940961927 M744.134245758135,206.0707940961927 L745.0988407713735,209.0368740455726 M745.0988407713735,209.0368740455726 L744.7709560060739,212.0395074570924 M744.7709560060739,212.0395074570924 L743.1695890260892,214.89807014692187 M743.1695890260892,214.89807014692187 L740.3904266913821,217.44041875323782 M740.3904266913821,217.44041875323782 L736.6002218380768,219.51330826434204 M736.6002218380768,219.51330826434204 L732.0269061427518,220.991672110722 M732.0269061427518,220.991672110722 L726.945860747124,221.78623911561158 M726.945860747124,221.78623911561158 L721.663224950257,221.8490271117294 M721.663224950257,221.8490271117294 L716.4974123937905,221.1762305223969 M716.4974123937905,221.1762305223969 L711.7597031634143,219.8084985936438 M705.8883447368733,216.49733944886214 L700.7971437859082,219.4347860842405 M705.8883447368733,216.49733944886214 L705.8221555211558,223.2380156078109" stroke="black"  stroke-width="4"  fill="red"/>
<path d="M706.2635218799692,222.98324923648798 L706.3298069378654,216.24263104716263 M89.74222522517107,578.8529036758417 L89.67143779249511,572.0331545543285 M706.2635218799692,222.98324923648798 L89.74222522517107,578.8529036758417 M706.3298069378654,216.24263104716263 L89.67143779249511,572.0331545543285 M95.61223968953163,582.3229252776971 L95.54275662640839,575.5024227311908 M89.74222522517107,578.8529036758417 L95.61223968953163,582.3229252776971 M89.67143779249511,572.0331545543285 L95.54275662640839,575.5024227311908 M712.1335736417586,226.2950498535819 L712.201163102384,219.55367824356406 M95.61223968953163,582.3229252776971 L712.1335736417586,226.2950498535819 M95.54275662640839,575.5024227311908 L712.201163102384,219.55367824356406 M712.1335736417586,226.2950498535819 L706.2635218799692,222.98324923648798 M712.201163102384,219.55367824356406 L706.3298069378654,216.24263104716263" stroke="black"  stroke-width="4"  fill="red"/>
<path d="M78.01011092269437,571.9175391529424 L77.93671828897607,565.0992969169585 M47.9254429097204,589.2676524250776 L47.84519797375606,582.4456430653521 M78.01011092269437,571.9175391529424 L47.9254429097204,589.2676524250776 M77.93671828897607,565.0992969169585 L47.84519797375606,582.4456430653521 M77.27469689699001,606.656842528907 L77.20097325620645,599.8310663620865 M47.9254429097204,589.2676524250776 L77.27469689699001,606.656842528907 M47.84519797375606,582.4456430653521 L77.20097325620645,599.8310663620865 M107.36019214733824,589.2676524250777 L107.29332136736792,582.4456430653521 M77.27469689699001,606.656842528907 L107.36019214733824,589.2676524250777 M77.20097325620645,599.8310663620865 L107.29332136736792,582.4456430653521 M107.36019214733824,589.2676524250777 L78.01011092269437,571.9175391529424 M107.29332136736792,582.4456430653521 L77.93671828897607,565.0992969169585" stroke="black"  stroke-width="4"  fill="red"/></svg>