<svg viewBox="0 0 800 800" xmlns="http://www.w3.org/2000/svg"><path d="M379.1217818047948,267.5884798119787 L379.00701170557795,220.56546413312662 M-11.124453600068591,534.0082973929237 L-11.679152660468958,486.69052483335963 M379.1217818047948,267.5884798119787 L-11.124453600068591,534.0082973929237 M379.00701170557795,220.56546413312662 L-11.679152660468958,486.69052483335963 M111.04520347814287,606.2281107726949 L110.62636186971207,558.8317209591296 M-11.124453600068591,534.0082973929237 L111.04520347814287,606.2281107726949 M-11.679152660468958,486.69052483335963 L110.62636186971207,558.8317209591296 M811.3101824334462,510.04297815479356 L811.6791526604691,462.75141485821644 M111.04520347814287,606.2281107726949 L811.3101824334462,510.04297815479356 M110.62636186971207,558.8317209591296 L811.6791526604691,462.75141485821644 M731.1740547669413,341.4674556704675 L731.4508801507002,294.36195623941825 M811.3101824334462,510.04297815479356 L731.1740547669413,341.4674556704675 M811.6791526604691,462.75141485821644 L731.4508801507002,294.36195623941825 M580.0468076533468,263.95229310580123 L580.1549606348169,216.9333519228644 M731.1740547669413,341.4674556704675 L580.0468076533468,263.95229310580123 M731.4508801507002,294.36195623941825 L580.1549606348169,216.9333519228644 M567.0330668507489,257.3613344715095 L567.1267532816655,210.34978226620416 M580.0468076533468,263.95229310580123 L567.0330668507489,257.3613344715095 M580.1549606348169,216.9333519228644 L567.1267532816655,210.34978226620416 M567.0330668507489,257.3613344715095 L552.698926554754,251.76256909864952 M552.698926554754,251.76256909864952 L537.2693039393187,247.24265810288813 M537.2693039393187,247.24265810288813 L520.9857339798876,243.8714606518348 M520.9857339798876,243.8714606518348 L504.102659648632,241.70101769181542 M504.102659648632,241.70101769181542 L486.88356598156474,240.76481523871507 M486.88356598156474,240.76481523871507 L469.5970233329998,241.07728599999786 M469.5970233329998,241.07728599999786 L452.5125910753769,242.63361014513328 M452.5125910753769,242.63361014513328 L435.89680639597975,245.40979131515888 M435.89680639597975,245.40979131515888 L420.00912481101744,249.3629872783264 M420.00912481101744,249.3629872783264 L405.0980007993657,254.4321324419713 M405.0980007993657,254.4321324419713 L391.39712494212336,260.5388310810115 M391.39712494212336,260.5388310810115 L379.1217818047948,267.5884798119787 M567.1267532816655,210.34978226620416 L552.776695207423,204.75729712816593 M552.776695207423,204.75729712816593 L537.3299520784724,200.24245859822184 M537.3299520784724,200.24245859822184 L521.0283248646952,196.87504586695974 M521.0283248646952,196.87504586695974 L504.12653607570485,194.70704021515564 M504.12653607570485,194.70704021515564 L486.8883597449479,193.7718892273051 M486.8883597449479,193.7718892273051 L469.5826605363089,194.08400903701164 M469.5826605363089,194.08400903701164 L452.47929316210997,195.63858534917722 M452.47929316210997,195.63858534917722 L435.84508699645374,198.41164935481333 M435.84508699645374,198.41164935481333 L419.93978233995676,202.36040796913892 M419.93978233995676,202.36040796913892 L405.0121069309561,207.42386556420388 M405.0121069309561,207.42386556420388 L391.2960090932064,213.52371608524777 M391.2960090932064,213.52371608524777 L379.00701170557795,220.56546413312662" stroke="black"  stroke-width="4"  fill="red"/></svg>